<?xml version="1.0" encoding="utf-8"?>
<svg version="1.1" xmlns:xlink="http://www.w3.org/1999/xlink" width="83px" height="36px" xmlns="http://www.w3.org/2000/svg">
  <defs>
    <pattern id="BGPattern" patternUnits="userSpaceOnUse" alignment="0 0" imageRepeat="None" />
    <mask fill="white" id="Clip572">
      <path d="M 0 36  L 0 0  L 83 0  L 83 36  L 0 36  Z " fill-rule="evenodd" />
    </mask>
  </defs>
  <g transform="matrix(1 0 0 1 -10 -20 )">
    <path d="M 0 36  L 0 0  L 83 0  L 83 36  L 0 36  Z " fill-rule="nonzero" fill="rgba(242, 242, 242, 1)" stroke="none" transform="matrix(1 0 0 1 10 20 )" class="fill" />
    <path d="M 0 36  L 0 0  L 83 0  L 83 36  L 0 36  Z " stroke-width="2" stroke-dasharray="0" stroke="rgba(121, 121, 121, 1)" fill="none" transform="matrix(1 0 0 1 10 20 )" class="stroke" mask="url(#Clip572)" />
    <path d="M 81.94241727939378 0.45871057761233197  L 1.0575827206062098 35.54128942238766  M 1.0575827206062098 0.45871057761233197  L 81.94241727939378 35.54128942238766  " stroke-width="1" stroke-dasharray="0" stroke="rgba(121, 121, 121, 1)" fill="none" transform="matrix(1 0 0 1 10 20 )" class="stroke" />
  </g>
</svg>